<?xml version="1.0" encoding="utf-8"?>
<!-- Generator: Adobe Illustrator 17.0.2, SVG Export Plug-In . SVG Version: 6.00 Build 0)  -->
<!DOCTYPE svg PUBLIC "-//W3C//DTD SVG 1.1//EN" "http://www.w3.org/Graphics/SVG/1.1/DTD/svg11.dtd">
<svg version="1.1" id="Livello_1" xmlns="http://www.w3.org/2000/svg" xmlns:xlink="http://www.w3.org/1999/xlink" x="0px" y="0px"
	 width="141.732px" height="141.732px" viewBox="0 0 141.732 141.732" enable-background="new 0 0 141.732 141.732"
	 xml:space="preserve">
<path d="M82.912,118.403V59.218c0.011-0.204,0.016-0.413,0.016-0.616c0-3.592-1.545-6.744-3.874-8.545h0.01
	c-2.235-1.619-3.69-4.258-3.69-7.238c0-0.248,0.011-0.49,0.03-0.728h-0.007V26.693h-0.02v-0.036
	c0.194-0.164,0.319-0.407,0.319-0.683c0-0.006-0.001-0.015-0.001-0.019h0.001V25.09h-0.004c-0.019-0.315-0.208-0.588-0.475-0.728
	v-2.05h-0.001c0-0.006,0.001-0.015,0.001-0.019c0-0.488-0.397-0.887-0.885-0.887c-0.009,0-0.015,0.003-0.021,0.003v-0.003h-6.995
	v0.003c-0.009,0-0.015-0.003-0.022-0.003c-0.49,0-0.886,0.4-0.886,0.886c0,0.006,0.001,0.015,0.001,0.019h-0.001v2.051
	c-0.268,0.136-0.454,0.41-0.475,0.728H65.93v0.864h0.001c0,0.009-0.001,0.015-0.001,0.019c0,0.317,0.168,0.596,0.419,0.753v1.039
	v14.327h-0.006c0.019,0.24,0.03,0.482,0.03,0.728c0,2.868-1.348,5.418-3.442,7.051c-2.471,1.757-4.129,5.007-4.129,8.729
	c0,0.284,0.011,0.571,0.03,0.85v58.815c-0.015,0.098-0.03,0.195-0.03,0.297c0,0.975,0.789,1.764,1.764,1.764h20.6
	c0.973,0,1.764-0.788,1.764-1.764C82.929,118.509,82.918,118.456,82.912,118.403 M137.049,70.866
	c0,36.552-29.631,66.183-66.183,66.183S4.683,107.418,4.683,70.866S34.314,4.683,70.866,4.683S137.049,34.314,137.049,70.866z"/>
<g id="Livello_1_1_">
</g>
</svg>
